<svg xmlns="http://www.w3.org/2000/svg" width="118" height="40" viewBox="0 0 118 40">
  <g id="Group_63886" data-name="Group 63886" transform="translate(-108.046 -17.114)">
    <rect id="Rectangle_24331" data-name="Rectangle 24331" width="118" height="40" transform="translate(108.046 17.114)" fill="none"/>
    <g id="e2e_Job_seeker_Light_bckground" data-name="e2e_Job seeker_Light bckground" transform="translate(113.612 24.458)">
      <g id="Layer_1" data-name="Layer 1" transform="translate(0)">
        <path id="Path_42591" data-name="Path 42591" d="M6.328,15.149c3.644,0,6.134,2.733,6.134,6.74v.7h-9.1a3.288,3.288,0,0,0,3.522,2.819A5,5,0,0,0,10.175,24.2l1.409,2.076A7.516,7.516,0,0,1,6.534,28,6.2,6.2,0,0,1,0,21.561a6.228,6.228,0,0,1,6.332-6.412Zm-3.01,5.269H9.339a2.819,2.819,0,0,0-3.011-2.706,2.936,2.936,0,0,0-3.01,2.706Z" transform="translate(0.004 -8.116)" fill="#252d41"/>
        <path id="Path_42592" data-name="Path 42592" d="M30.122,24.8c5.313-3.907,6.867-5.265,6.867-6.848,0-1.127-1.025-1.691-2.118-1.691a4.632,4.632,0,0,0-3.467,1.5L29.83,15.936a6.605,6.605,0,0,1,5-2.123c2.762,0,4.96,1.559,4.96,4.143,0,2.222-1.822,4.148-5.308,6.576h5.407v2.433H30.122Z" transform="translate(-15.818 -7.068)" fill="#252d41"/>
        <path id="Path_42593" data-name="Path 42593" d="M62.328,15.149c3.644,0,6.107,2.733,6.107,6.74v.7h-9.07a3.28,3.28,0,0,0,3.518,2.819A5,5,0,0,0,66.171,24.2l1.409,2.076A7.506,7.506,0,0,1,62.53,28,6.2,6.2,0,0,1,56,21.561a6.228,6.228,0,0,1,6.332-6.412ZM59.312,20.42h6.036a2.819,2.819,0,0,0-3.016-2.71,2.941,2.941,0,0,0-3.016,2.71Z" transform="translate(-29.734 -8.116)" fill="#252d41"/>
        <path id="Path_42594" data-name="Path 42594" d="M124.43,5.7a1.926,1.926,0,1,1,1.926,1.926A1.926,1.926,0,0,1,124.43,5.7Zm.329,3.725h3.226V21.657h-3.217Z" transform="translate(-66.069 -1.709)" fill="#252d41"/>
        <path id="Path_42595" data-name="Path 42595" d="M138.78,15.481H142v1.672a5.239,5.239,0,0,1,3.9-1.954v3.142a4.349,4.349,0,0,0-.887-.1A4.053,4.053,0,0,0,142,19.651v8.065H138.78Z" transform="translate(-73.692 -7.874)" fill="#252d41"/>
        <path id="Path_42596" data-name="Path 42596" d="M157.5,5.7a1.926,1.926,0,1,1,1.926,1.926A1.926,1.926,0,0,1,157.5,5.7Zm.329,3.725h3.217V21.657h-3.217Z" transform="translate(-83.628 -1.709)" fill="#252d41"/>
        <path id="Path_42597" data-name="Path 42597" d="M180.107,20.349a1.988,1.988,0,0,0-2.255-2.278,3.485,3.485,0,0,0-2.786,1.446v8.234H171.85V15.538h3.217v1.594a5.59,5.59,0,0,1,4.279-1.879,3.56,3.56,0,0,1,3.978,3.9v8.59h-3.217Z" transform="translate(-91.28 -7.924)" fill="#252d41"/>
        <path id="Path_42598" data-name="Path 42598" d="M203.4,28.5a4.854,4.854,0,0,0,3.823,1.517c1.545,0,3.368-.683,3.368-3.091V25.69a4.758,4.758,0,0,1-3.758,1.926c-3.067,0-5.4-2.156-5.4-6.233,0-4,2.306-6.233,5.4-6.233a4.7,4.7,0,0,1,3.759,1.88V15.455h3.246v11.4c0,4.659-3.6,5.8-6.613,5.8a7.367,7.367,0,0,1-5.271-1.822Zm7.191-9.1A3.49,3.49,0,0,0,207.837,18a3.037,3.037,0,0,0-3.1,3.372,3.034,3.034,0,0,0,3.1,3.368,3.556,3.556,0,0,0,2.757-1.409Z" transform="translate(-106.971 -7.357)" fill="#252d41"/>
        <g id="Group_21362" data-name="Group 21362" transform="translate(40.522)">
          <g id="Group_21358" data-name="Group 21358" transform="translate(0 0.089)">
            <path id="Path_42611" data-name="Path 42611" d="M94.2,16.954Zm-2.9,0h-.719V12.2H86.41V26.9h4.176V25.855l-.038-6.872h2.771l-.62-2.029Z" transform="translate(-86.41 -6.559)" fill="#de373a"/>
            <path id="Path_42610" data-name="Path 42610" d="M86.467.19h3.814c0,2.433-.827,4.4-3.513,4.4H86.42Z" transform="translate(-86.415 -0.19)" fill="#de373a"/>
          </g>
          <g id="Group_21359" data-name="Group 21359" transform="translate(7.793)">
            <path id="Path_42599" data-name="Path 42599" d="M142.451,12.2v6.755h0V26.9h4.17V12.2Zm0,7.759V18.953h0Zm-.836-3.007h-2.269l.559,2.039h2.527V16.952Z" transform="translate(-139.346 -6.469)" fill="#de373a"/>
            <path id="Path_42601" data-name="Path 42601" d="M109.69,4.486V4.077c0-3.114,1.879-4.077,4.2-4.077V4.424Z" transform="translate(-106.549 0)" fill="#de373a"/>
          </g>
        </g>
      </g>
    </g>
  </g>
</svg>
